<svg width="24" height="24" viewBox="0 0 24 24" fill="none" xmlns="http://www.w3.org/2000/svg">
<g opacity="0.7">
<path d="M16.4938 20.7C15.8811 20.7 15.3623 20.4861 14.9373 20.0582C14.5123 19.6306 14.2998 19.1112 14.2998 18.5C14.2998 18.4 14.3498 18.1417 14.4498 17.725L7.1998 13.4C6.9998 13.65 6.74864 13.8458 6.4463 13.9875C6.14414 14.1292 5.8203 14.2 5.4748 14.2C4.87064 14.2 4.35714 13.9833 3.9343 13.55C3.5113 13.1167 3.2998 12.6 3.2998 12C3.2998 11.4 3.5113 10.8833 3.9343 10.45C4.35714 10.0167 4.87064 9.79999 5.4748 9.79999C5.8203 9.79999 6.14414 9.87082 6.4463 10.0125C6.74864 10.1542 6.9998 10.35 7.1998 10.6L14.4498 6.29999C14.3998 6.16665 14.3623 6.03332 14.3373 5.89999C14.3123 5.76665 14.2998 5.63332 14.2998 5.49999C14.2998 4.88882 14.5143 4.3694 14.9433 3.94174C15.3721 3.5139 15.893 3.29999 16.5058 3.29999C17.1185 3.29999 17.6373 3.51449 18.0623 3.94349C18.4873 4.37232 18.6998 4.89315 18.6998 5.50599C18.6998 6.11865 18.4859 6.63749 18.0581 7.06249C17.6304 7.48749 17.111 7.69999 16.4998 7.69999C16.1498 7.69999 15.829 7.62499 15.5373 7.47499C15.2456 7.32499 14.9998 7.12499 14.7998 6.87499L7.5498 11.2C7.5998 11.3333 7.6373 11.4667 7.6623 11.6C7.6873 11.7333 7.6998 11.8667 7.6998 12C7.6998 12.1333 7.6873 12.2667 7.6623 12.4C7.6373 12.5333 7.5998 12.6667 7.5498 12.8L14.7998 17.125C14.9998 16.875 15.2456 16.675 15.5373 16.525C15.829 16.375 16.1498 16.3 16.4998 16.3C17.111 16.3 17.6304 16.5145 18.0581 16.9435C18.4859 17.3723 18.6998 17.8932 18.6998 18.506C18.6998 19.1187 18.4853 19.6375 18.0563 20.0625C17.6275 20.4875 17.1066 20.7 16.4938 20.7ZM16.4998 20C16.9248 20 17.2811 19.8562 17.5686 19.5687C17.8561 19.2812 17.9998 18.925 17.9998 18.5C17.9998 18.075 17.8561 17.7187 17.5686 17.4312C17.2811 17.1437 16.9248 17 16.4998 17C16.0748 17 15.7186 17.1437 15.4311 17.4312C15.1436 17.7187 14.9998 18.075 14.9998 18.5C14.9998 18.925 15.1436 19.2812 15.4311 19.5687C15.7186 19.8562 16.0748 20 16.4998 20ZM5.4748 13.5C5.90697 13.5 6.26914 13.3562 6.5613 13.0687C6.85364 12.7812 6.9998 12.425 6.9998 12C6.9998 11.575 6.85364 11.2187 6.5613 10.9312C6.26914 10.6437 5.90697 10.5 5.4748 10.5C5.05697 10.5 4.70664 10.6437 4.4238 10.9312C4.14114 11.2187 3.9998 11.575 3.9998 12C3.9998 12.425 4.14114 12.7812 4.4238 13.0687C4.70664 13.3562 5.05697 13.5 5.4748 13.5ZM16.4998 6.99999C16.9248 6.99999 17.2811 6.85624 17.5686 6.56874C17.8561 6.28124 17.9998 5.92499 17.9998 5.49999C17.9998 5.07499 17.8561 4.71874 17.5686 4.43124C17.2811 4.14374 16.9248 3.99999 16.4998 3.99999C16.0748 3.99999 15.7186 4.14374 15.4311 4.43124C15.1436 4.71874 14.9998 5.07499 14.9998 5.49999C14.9998 5.92499 15.1436 6.28124 15.4311 6.56874C15.7186 6.85624 16.0748 6.99999 16.4998 6.99999Z" fill="black"/>
</g>
</svg>
