<svg width="24" height="24" viewBox="0 0 24 24" fill="none" xmlns="http://www.w3.org/2000/svg">
<g opacity="0.7">
<path d="M4.9998 19H5.9998L16.9748 8.02499L15.9748 7.02499L4.9998 18V19ZM4.2998 19.7V17.7L17.4748 4.49999C17.548 4.43615 17.6288 4.38691 17.7173 4.35224C17.8056 4.31741 17.8971 4.29999 17.9918 4.29999C18.0863 4.29999 18.178 4.31249 18.2668 4.33749C18.3555 4.36249 18.4415 4.41665 18.5248 4.49999L19.4998 5.47499C19.5831 5.55832 19.6373 5.64507 19.6623 5.73524C19.6873 5.8254 19.6998 5.91557 19.6998 6.00574C19.6998 6.1019 19.6839 6.19415 19.6521 6.28249C19.6201 6.37099 19.5693 6.45182 19.4998 6.52499L6.2998 19.7H4.2998ZM16.4661 7.53374L15.9748 7.02499L16.9748 8.02499L16.4661 7.53374Z" fill="black"/>
</g>
</svg>
