<svg xmlns="http://www.w3.org/2000/svg" version="1.1" viewBox="-5.0 -10.0 110.0 115.0" fill="#4C4C4C">
    <path d="m87.438 58.75c-0.28125-1.4688-1.5625-2.5-3.0625-2.5h-3.125c-1.7188 0-3.125 1.4062-3.125 3.125s1.4062 3.125 3.125 3.125h0.5625l5 25h-73.625l5-25h0.5625c1.7188 0 3.125-1.4062 3.125-3.125s-1.4062-3.125-3.125-3.125h-3.125c-1.5 0-2.7812 1.0625-3.0625 2.5l-6.25 31.25c-0.375 1.9375 1.0938 3.75 3.0625 3.75h81.25c1.9688 0 3.4375-1.8125 3.0625-3.75z"/>
    <path d="m47.781 74.094c1.25 1.25 3.2188 1.1875 4.4375 0l18.75-18.75c1.2188-1.2188 1.2188-3.1875 0-4.4062s-3.1875-1.2188-4.4062 0l-13.406 13.406v-54.969c0-1.7188-1.4062-3.125-3.125-3.125s-3.125 1.4062-3.125 3.125v54.969l-13.406-13.406c-1.2188-1.2188-3.1875-1.2188-4.4062 0s-1.2188 3.1875 0 4.4062l18.75 18.75z"/>
</svg>