<svg width="20" height="18" viewBox="0 0 20 18" fill="none" xmlns="http://www.w3.org/2000/svg">
<path d="M9.79115 17.8666L8.37144 16.6008C6.72326 15.1241 5.36066 13.8502 4.28363 12.7792C3.2066 11.7082 2.34988 10.7508 1.71345 9.90693C1.07703 9.04687 0.628266 8.25983 0.367168 7.54582C0.122389 6.83181 0 6.10157 0 5.3551C0 3.82971 0.514036 2.55584 1.54211 1.53351C2.57018 0.511168 3.85119 0 5.38514 0C6.2337 0 7.04147 0.178503 7.80845 0.53551C8.57542 0.892517 9.23632 1.39557 9.79115 2.04467C10.346 1.39557 11.0069 0.892517 11.7739 0.53551C12.5408 0.178503 13.3486 0 14.1972 0C15.7311 0 17.0121 0.511168 18.0402 1.53351C19.0683 2.55584 19.5823 3.82971 19.5823 5.3551C19.5823 6.10157 19.4518 6.83181 19.1907 7.54582C18.9459 8.25983 18.5053 9.04687 17.8689 9.90693C17.2324 10.7508 16.3757 11.7082 15.2987 12.7792C14.2217 13.8502 12.859 15.1241 11.2109 16.6008L9.79115 17.8666ZM9.79115 15.2377C11.3577 13.8421 12.6469 12.6494 13.6587 11.6595C14.6704 10.6534 15.47 9.78522 16.0575 9.05498C16.645 8.30852 17.0529 7.6513 17.2814 7.08333C17.5098 6.49914 17.6241 5.92306 17.6241 5.3551C17.6241 4.38144 17.2977 3.57007 16.645 2.92096C15.9922 2.27186 15.1763 1.94731 14.1972 1.94731C13.4302 1.94731 12.7203 2.16638 12.0676 2.60453C11.4149 3.02644 10.9661 3.57007 10.7213 4.2354H8.861C8.61622 3.57007 8.16745 3.02644 7.51471 2.60453C6.86197 2.16638 6.15211 1.94731 5.38514 1.94731C4.40602 1.94731 3.59009 2.27186 2.93735 2.92096C2.2846 3.57007 1.95823 4.38144 1.95823 5.3551C1.95823 5.92306 2.07246 6.49914 2.30092 7.08333C2.52938 7.6513 2.93735 8.30852 3.52482 9.05498C4.11228 9.78522 4.9119 10.6534 5.92365 11.6595C6.9354 12.6494 8.22457 13.8421 9.79115 15.2377Z" fill="#2E2E2E"/>
</svg>
