<svg width="87" height="98" viewBox="0 0 87 98" fill="none" xmlns="http://www.w3.org/2000/svg">
<path d="M0.0625 0H11.6875V82.875L10.6875 96H0.0625V0ZM57.375 61.625V62.9375C57.375 67.8542 56.7917 72.4167 55.625 76.625C54.4583 80.7917 52.75 84.4167 50.5 87.5C48.25 90.5833 45.5 92.9792 42.25 94.6875C39 96.3958 35.2708 97.25 31.0625 97.25C26.7708 97.25 23 96.5208 19.75 95.0625C16.5417 93.5625 13.8333 91.4167 11.625 88.625C9.41667 85.8333 7.64583 82.4583 6.3125 78.5C5.02083 74.5417 4.125 70.0833 3.625 65.125V59.375C4.125 54.375 5.02083 49.8958 6.3125 45.9375C7.64583 41.9792 9.41667 38.6042 11.625 35.8125C13.8333 32.9792 16.5417 30.8333 19.75 29.375C22.9583 27.875 26.6875 27.125 30.9375 27.125C35.1875 27.125 38.9583 27.9583 42.25 29.625C45.5417 31.25 48.2917 33.5833 50.5 36.625C52.75 39.6667 54.4583 43.3125 55.625 47.5625C56.7917 51.7708 57.375 56.4583 57.375 61.625ZM45.75 62.9375V61.625C45.75 58.25 45.4375 55.0833 44.8125 52.125C44.1875 49.125 43.1875 46.5 41.8125 44.25C40.4375 41.9583 38.625 40.1667 36.375 38.875C34.125 37.5417 31.3542 36.875 28.0625 36.875C25.1458 36.875 22.6042 37.375 20.4375 38.375C18.3125 39.375 16.5 40.7292 15 42.4375C13.5 44.1042 12.2708 46.0208 11.3125 48.1875C10.3958 50.3125 9.70833 52.5208 9.25 54.8125V69.875C9.91667 72.7917 11 75.6042 12.5 78.3125C14.0417 80.9792 16.0833 83.1667 18.625 84.875C21.2083 86.5833 24.3958 87.4375 28.1875 87.4375C31.3125 87.4375 33.9792 86.8125 36.1875 85.5625C38.4375 84.2708 40.25 82.5 41.625 80.25C43.0417 78 44.0833 75.3958 44.75 72.4375C45.4167 69.4792 45.75 66.3125 45.75 62.9375ZM71.9375 89.875C71.9375 87.9167 72.5417 86.2708 73.75 84.9375C75 83.5625 76.7917 82.875 79.125 82.875C81.4583 82.875 83.2292 83.5625 84.4375 84.9375C85.6875 86.2708 86.3125 87.9167 86.3125 89.875C86.3125 91.7917 85.6875 93.4167 84.4375 94.75C83.2292 96.0833 81.4583 96.75 79.125 96.75C76.7917 96.75 75 96.0833 73.75 94.75C72.5417 93.4167 71.9375 91.7917 71.9375 89.875Z" fill="black" fill-opacity="0.5"/>
</svg>
