<svg width="44" height="224" viewBox="0 0 44 224" fill="none" xmlns="http://www.w3.org/2000/svg">
<path d="M39 0.25C41.6234 0.25 43.75 2.37665 43.75 5V219C43.75 221.623 41.6234 223.75 39 223.75H0.25V0.25H39Z" fill="#F4F4F4" stroke="#C2C2C2" stroke-width="0.5"/>
<path d="M27.7333 111.767L18.6239 120.876C18.4684 121.032 18.2842 121.109 18.0714 121.109C17.8586 121.109 17.6745 121.032 17.519 120.876L15.481 118.838C15.3255 118.683 15.2478 118.499 15.2478 118.286C15.2478 118.073 15.3255 117.889 15.481 117.733L22 111.214L15.481 104.695C15.3255 104.54 15.2478 104.356 15.2478 104.143C15.2478 103.93 15.3255 103.746 15.481 103.59L17.519 101.552C17.6745 101.397 17.8586 101.319 18.0714 101.319C18.2842 101.319 18.4684 101.397 18.6239 101.552L27.7333 110.662C27.8888 110.817 27.9665 111.002 27.9665 111.214C27.9665 111.427 27.8888 111.611 27.7333 111.767Z" fill="#4D4D4D"/>
</svg>
