<svg width="25" height="25" viewBox="0 0 25 25" fill="none" xmlns="http://www.w3.org/2000/svg">
<path opacity="0.7" d="M9.9 18.075H15.075V17.025H9.9V18.075ZM9.9 12.075H19.575V11.025H9.9V12.075ZM6.525 6.075H19.575V5.025H6.525V6.075ZM6.15 24.6C4.45 24.6 3 24.0063 1.8 22.8188C0.6 21.6313 0 20.1875 0 18.4875C0 17.1375 0.3875 15.9375 1.1625 14.8875C1.9375 13.8375 2.925 13.1 4.125 12.675H0V11.625H6.15V17.775H5.1V13.4625C3.925 13.7125 2.95625 14.3 2.19375 15.225C1.43125 16.15 1.05 17.225 1.05 18.45C1.05 19.875 1.54375 21.0813 2.53125 22.0688C3.51875 23.0563 4.725 23.55 6.15 23.55V24.6ZM9.9 23.1V22.05H22.35C22.65 22.05 22.925 21.925 23.175 21.675C23.425 21.425 23.55 21.15 23.55 20.85V2.25C23.55 1.95 23.425 1.675 23.175 1.425C22.925 1.175 22.65 1.05 22.35 1.05H3.75C3.45 1.05 3.175 1.175 2.925 1.425C2.675 1.675 2.55 1.95 2.55 2.25V7.875H1.5V2.25C1.5 1.6 1.7125 1.0625 2.1375 0.6375C2.5625 0.2125 3.1 0 3.75 0H22.35C23 0 23.5375 0.2125 23.9625 0.6375C24.3875 1.0625 24.6 1.6 24.6 2.25V20.85C24.6 21.5 24.3875 22.0375 23.9625 22.4625C23.5375 22.8875 23 23.1 22.35 23.1H9.9Z" fill="black"/>
</svg>
