<svg width="24" height="24" viewBox="0 0 24 24" fill="none" xmlns="http://www.w3.org/2000/svg">
<g opacity="0.7">
<path d="M4.6155 21C4.168 21 3.78683 20.8427 3.472 20.528C3.15733 20.2132 3 19.832 3 19.3845V4.61553C3 4.16803 3.15733 3.78686 3.472 3.47203C3.78683 3.15736 4.168 3.00003 4.6155 3.00003H11.323L10.323 4.00003H4.6155C4.436 4.00003 4.2885 4.05769 4.173 4.17303C4.05767 4.28853 4 4.43603 4 4.61553V19.3845C4 19.564 4.05767 19.7115 4.173 19.827C4.2885 19.9424 4.436 20 4.6155 20H14.3845C14.564 20 14.7115 19.9424 14.827 19.827C14.9423 19.7115 15 19.564 15 19.3845V17.5H16V19.3845C16 19.832 15.8427 20.2132 15.528 20.528C15.2132 20.8427 14.832 21 14.3845 21H4.6155ZM6.5 17.5V16.5H12.5V17.5H6.5ZM6.5 14.7308V13.7308H10.5V14.7308H6.5ZM14.5 13.9808L11.2115 10.6923H8.5V6.69228H11.2115L14.5 3.40378V13.9808ZM16.5 11.623V5.76153C17.0103 6.09869 17.3879 6.53844 17.6328 7.08078C17.8776 7.62311 18 8.16028 18 8.69228C18 9.22444 17.8743 9.76161 17.623 10.3038C17.3718 10.8461 16.9975 11.2859 16.5 11.623ZM16.5 15.5578V14.4963C17.5257 14.0026 18.3654 13.224 19.0193 12.1605C19.6731 11.0972 20 9.94111 20 8.69228C20 7.44361 19.6731 6.28753 19.0193 5.22403C18.3654 4.16053 17.5257 3.38203 16.5 2.88853V1.82703C17.7975 2.34103 18.8718 3.23044 19.723 4.49528C20.5743 5.75994 21 7.15894 21 8.69228C21 10.2256 20.5743 11.6247 19.723 12.8895C18.8718 14.1542 17.7975 15.0436 16.5 15.5578Z" fill="black"/>
</g>
</svg>
