<svg width="24" height="24" viewBox="0 0 24 24" fill="none" xmlns="http://www.w3.org/2000/svg">
<g opacity="0.7">
<path d="M6.6998 5.34998H16.4498V15.75L10.3998 21.7L10.1998 21.5C10.1165 21.4166 10.0456 21.3125 9.9873 21.1875C9.92897 21.0625 9.8998 20.95 9.8998 20.85V20.75L10.8998 15.75H3.7998C3.41647 15.75 3.07064 15.5958 2.7623 15.2875C2.45397 14.9791 2.2998 14.6333 2.2998 14.25V13.25C2.2998 13.1666 2.30814 13.075 2.3248 12.975C2.34147 12.875 2.36647 12.7833 2.3998 12.7L5.0498 6.39998C5.18314 6.09998 5.40814 5.84998 5.7248 5.64998C6.04147 5.44998 6.36647 5.34998 6.6998 5.34998ZM15.7498 6.04998H6.6998C6.51647 6.04998 6.32897 6.09998 6.1373 6.19998C5.94564 6.29998 5.7998 6.46664 5.6998 6.69998L2.9998 13.05V14.25C2.9998 14.4833 3.0748 14.675 3.2248 14.825C3.3748 14.975 3.56647 15.05 3.7998 15.05H11.7498L10.6498 20.5L15.7498 15.45V6.04998ZM16.4498 15.75V15.05H19.9998V6.04998H16.4498V5.34998H20.6998V15.75H16.4498Z" fill="black" fill-opacity="0.7"/>
</g>
</svg>
