<svg width="24" height="24" viewBox="0 0 24 24" fill="none" xmlns="http://www.w3.org/2000/svg">
<g opacity="0.7">
<path d="M17.2998 19.7H7.5498V9.29998L13.5998 3.34998L13.7998 3.54998C13.8831 3.63331 13.954 3.73748 14.0123 3.86248C14.0706 3.98748 14.0998 4.09998 14.0998 4.19998V4.29998L13.0998 9.29998H20.1998C20.5831 9.29998 20.929 9.45414 21.2373 9.76248C21.5456 10.0708 21.6998 10.4166 21.6998 10.8V11.8C21.6998 11.8833 21.6915 11.975 21.6748 12.075C21.6581 12.175 21.6331 12.2666 21.5998 12.35L18.9498 18.65C18.8165 18.95 18.5915 19.2 18.2748 19.4C17.9581 19.6 17.6331 19.7 17.2998 19.7ZM8.2498 19H17.2998C17.4831 19 17.6706 18.95 17.8623 18.85C18.054 18.75 18.1998 18.5833 18.2998 18.35L20.9998 12V10.8C20.9998 10.5666 20.9248 10.375 20.7748 10.225C20.6248 10.075 20.4331 9.99998 20.1998 9.99998H12.2498L13.3498 4.54998L8.2498 9.59998V19ZM7.5498 9.29998V9.99998H3.9998V19H7.5498V19.7H3.2998V9.29998H7.5498Z" fill="black" fill-opacity="0.7"/>
</g>
</svg>
